<svg width="57" height="41" viewBox="0 0 57 41" fill="none" xmlns="http://www.w3.org/2000/svg">
<path d="M32.7169 26.5702V5.58154H41.802C43.681 5.58154 45.3001 5.89138 46.6594 6.51104C48.0187 7.11072 49.0681 7.98025 49.8077 9.11964C50.5473 10.259 50.9171 11.6183 50.9171 13.1974C50.9171 14.7566 50.5473 16.1059 49.8077 17.2453C49.0681 18.3647 48.0187 19.2242 46.6594 19.8239C45.3001 20.4235 43.681 20.7234 41.802 20.7234H35.4155L37.5743 18.5945V26.5702H32.7169ZM46.0597 26.5702L40.8126 18.9543H45.9998L51.3069 26.5702H46.0597ZM37.5743 19.1342L35.4155 16.8555H41.5322C43.0314 16.8555 44.1508 16.5356 44.8904 15.896C45.63 15.2363 45.9998 14.3368 45.9998 13.1974C45.9998 12.0381 45.63 11.1385 44.8904 10.4989C44.1508 9.85924 43.0314 9.53941 41.5322 9.53941H35.4155L37.5743 7.23065V19.1342Z" fill="#00C19D"/>
<mask id="mask0_614_1815" style="mask-type:alpha" maskUnits="userSpaceOnUse" x="46" y="0" width="12" height="11">
<path d="M57.0002 6.40341L56.9759 0L50.3639 0.0296723L46.35 4.06818L52.9573 4.04315L52.9863 10.4419L57.0002 6.40341Z" fill="#00C19D"/>
</mask>
<g mask="url(#mask0_614_1815)">
<circle cx="52.4009" cy="4.58509" r="6.51966" fill="#00C19D"/>
<circle cx="50.2008" cy="6.84083" r="6.79932" fill="#05DFB7"/>
<circle cx="49.6988" cy="7.34312" r="6.16782" fill="#2DF3CE"/>
<circle cx="49.4294" cy="7.61254" r="5.08862" fill="#71FFE5"/>
</g>
<path d="M25.1477 26.5702V5.58154H30.0051V26.5702H25.1477Z" fill="#00C19D"/>
<path d="M0 26.5702L9.35496 5.58154H14.1524L23.5373 26.5702H18.4401L10.7642 8.04022H12.6832L4.97732 26.5702H0ZM4.67748 22.0727L5.96678 18.3846H16.761L18.0803 22.0727H4.67748Z" fill="#00C19D"/>
<path d="M28.4583 36.7219V30.3096H26.9336V37.9261H31.9943V36.7219H28.4583Z" fill="#00C19D"/>
<path d="M38.1096 35.0647C38.1096 33.387 36.9417 32.2754 35.2007 32.2754C33.449 32.2754 32.2919 33.4385 32.2919 35.1882C32.2919 36.8968 33.4814 38.029 35.2656 38.029C36.3686 38.029 37.2877 37.5555 37.8068 36.8144L36.6713 36.2689C36.3254 36.6703 35.8387 36.9277 35.244 36.9277C34.3897 36.9277 33.9572 36.4336 33.849 35.6514H38.0663C38.0879 35.4867 38.1096 35.2603 38.1096 35.0647ZM35.2007 33.3767C35.9902 33.3767 36.4551 33.8605 36.5633 34.7044H33.849C33.968 33.8605 34.4222 33.3767 35.2007 33.3767Z" fill="#00C19D"/>
<path d="M41.3678 32.2754C40.3513 32.2754 39.616 32.5121 38.9889 32.9959L39.6269 33.8193C39.9945 33.5311 40.4379 33.3767 40.9893 33.3767C41.876 33.3767 42.395 33.8193 42.395 34.5604V34.6633C41.9518 34.5809 41.5084 34.5398 41.1083 34.5398C39.616 34.5398 38.6212 35.2397 38.6212 36.3101C38.6212 37.3394 39.4321 38.029 40.6432 38.029C41.3569 38.029 42.0274 37.7099 42.4167 37.1335L42.4491 37.926H43.8657V34.4368C43.8657 33.1297 42.8601 32.2754 41.3678 32.2754ZM41.065 37.0306C40.4703 37.0306 40.1567 36.7321 40.1567 36.2792C40.1567 35.8058 40.6001 35.497 41.2921 35.497C41.6273 35.497 42.0166 35.5382 42.395 35.6102C42.3843 36.516 41.7463 37.0306 41.065 37.0306Z" fill="#00C19D"/>
<path d="M48.5171 32.2754C47.6195 32.2754 46.9708 32.6253 46.5598 33.212L46.5274 32.3783H45.1108V40.1904H46.5814V37.1232C46.9924 37.6893 47.6304 38.029 48.5171 38.029C50.085 38.029 51.307 36.8659 51.307 35.1265C51.307 33.4076 50.085 32.2754 48.5171 32.2754ZM48.1819 36.8247C47.2194 36.8247 46.5814 36.1557 46.5814 35.147C46.5814 34.1384 47.2194 33.4693 48.1819 33.4693C49.1334 33.4693 49.7822 34.1384 49.7822 35.1367C49.7822 36.1557 49.1334 36.8247 48.1819 36.8247Z" fill="#00C19D"/>
<path d="M6.61782 37.9261H8.25066L4.8336 30.3096H3.41704L0 37.9261H1.63283L2.28164 36.4131H5.96902L6.61782 37.9261ZM2.80068 35.2089L4.13073 32.1108L5.46079 35.2089H2.80068Z" fill="#3D4242"/>
<path d="M12.6403 32.3784V35.6412C12.6403 36.3514 12.1428 36.8248 11.3967 36.8248C10.6397 36.8248 10.1315 36.3514 10.1315 35.6412V32.3784H8.66089V35.8573C8.66089 37.1645 9.55841 38.0291 10.8777 38.0291C11.613 38.0291 12.2509 37.7615 12.6727 37.2468L12.6943 37.9261H14.1109V32.3784H12.6403Z" fill="#3D4242"/>
<path d="M18.0983 36.8251C17.6225 36.8251 17.2982 36.4957 17.2982 35.9914V33.5212H19.0175V32.3787H17.2982V30.7524H15.8275V32.3787H14.8651V33.5212H15.8275V36.2796C15.8275 37.3294 16.552 38.0293 17.6225 38.0293C18.1416 38.0293 18.6606 37.947 19.104 37.772V36.6398C18.7688 36.7736 18.4336 36.8251 18.0983 36.8251Z" fill="#3D4242"/>
<path d="M22.6375 38.029C24.4974 38.029 25.7517 36.8762 25.7517 35.147C25.7517 33.4282 24.4974 32.2754 22.6375 32.2754C20.7667 32.2754 19.5125 33.4282 19.5125 35.147C19.5125 36.8762 20.7667 38.029 22.6375 38.029ZM22.6375 36.8247C21.6751 36.8247 21.0371 36.1557 21.0371 35.147C21.0371 34.1384 21.6751 33.4693 22.6375 33.4693C23.589 33.4693 24.227 34.1384 24.227 35.147C24.227 36.1557 23.589 36.8247 22.6375 36.8247Z" fill="#3D4242"/>
</svg>
