<svg width="20" height="20" viewBox="0 0 20 20" fill="none" xmlns="http://www.w3.org/2000/svg">
<g clip-path="url(#clip0_614_1844)">
<mask id="mask0_614_1844" style="mask-type:luminance" maskUnits="userSpaceOnUse" x="0" y="0" width="20" height="20">
<path d="M19.6 0.399902H0.400024V19.5999H19.6V0.399902Z" fill="white"/>
</mask>
<g mask="url(#mask0_614_1844)">
<path d="M19.413 10.2211C19.413 9.56859 19.3601 8.91251 19.2472 8.27051H10.1921V11.9673H15.3776C15.1624 13.1595 14.471 14.2143 13.4586 14.8845V17.2831H16.5522C18.3689 15.6111 19.413 13.1419 19.413 10.2211Z" fill="#4285F4"/>
<path d="M10.1921 19.6007C12.7813 19.6007 14.9647 18.7507 16.5556 17.2832L13.4621 14.8845C12.6014 15.4701 11.4902 15.8017 10.1956 15.8017C7.69111 15.8017 5.56757 14.112 4.80564 11.8403H1.61328V14.3131C3.24297 17.5548 6.56232 19.6007 10.1921 19.6007Z" fill="#34A853"/>
<path d="M4.80219 11.8403C4.40006 10.648 4.40006 9.35693 4.80219 8.16461V5.69189H1.61337C0.251762 8.40453 0.251762 11.6004 1.61337 14.313L4.80219 11.8403Z" fill="#FBBC04"/>
<path d="M10.1921 4.19963C11.5607 4.17846 12.8835 4.69348 13.8747 5.63884L16.6156 2.898C14.8801 1.2683 12.5766 0.372329 10.1921 0.400549C6.56232 0.400549 3.24297 2.44648 1.61328 5.69175L4.80211 8.16454C5.56051 5.88929 7.68758 4.19963 10.1921 4.19963Z" fill="#EA4335"/>
</g>
</g>
<defs>
<clipPath id="clip0_614_1844">
<rect width="20" height="20" fill="white"/>
</clipPath>
</defs>
</svg>
